<?xml version="1.0" standalone="no"?>
<!DOCTYPE svg PUBLIC "-//W3C//DTD SVG 20010904//EN"
 "http://www.w3.org/TR/2001/REC-SVG-20010904/DTD/svg10.dtd">
<svg version="1.0" xmlns="http://www.w3.org/2000/svg"
 width="293.000000pt" height="293.000000pt" viewBox="0 0 293.000000 293.000000"
 preserveAspectRatio="xMidYMid meet">
<metadata>
Created by potrace 1.11, written by Peter Selinger 2001-2013
</metadata>
<g transform="translate(0.000000,293.000000) scale(0.100000,-0.100000)"
fill="#000000" stroke="none">
<path d="M45 2288 c-3 -7 -4 -384 -3 -838 l3 -825 205 0 205 0 3 328 2 327
215 0 215 0 2 -327 3 -328 71 -3 c49 -2 74 1 81 10 5 7 67 213 136 459 l127
445 -2 380 -3 379 -207 3 -208 2 0 -320 0 -320 -215 0 -215 0 0 320 0 320
-205 0 c-155 0 -207 -3 -210 -12z"/>
<path d="M1915 2289 c-2 -8 -68 -237 -145 -509 l-140 -495 0 -327 0 -328 413
0 c456 0 490 4 601 63 115 61 200 175 227 305 17 83 7 235 -20 296 -28 63 -72
118 -124 156 l-42 30 61 65 c128 133 149 318 59 502 -57 115 -154 189 -300
229 -84 23 -582 34 -590 13z m465 -384 c44 -23 60 -53 60 -115 0 -110 -38
-130 -245 -130 l-145 0 0 130 0 130 150 0 c114 0 158 -4 180 -15z m23 -638
c62 -40 82 -116 49 -189 -30 -69 -58 -78 -246 -78 l-156 0 0 146 0 146 163 -3
c135 -3 168 -7 190 -22z"/>
</g>
</svg>
