<svg version="1" xmlns="http://www.w3.org/2000/svg" width="2000" height="2000" viewBox="0 0 1500.000000 1500.000000"><path d="M0 750v750h1500V0H0v750zm402-177.5V683h150V462h142l-.2 131.7-.3 131.8-44.4 155.7-44.5 155.8H552V809H402v228H260V462h142v110.5zm670-109.4c94 8.5 149.7 60 158.1 146.4 4.3 43.6-8.1 80.6-36.8 110.6-5.2 5.4-12.8 12.4-16.9 15.5-4.1 3.2-7.3 6-7.2 6.4.2.4 4.4 3.5 9.3 6.9 39.3 26.5 58.4 62 60.2 112.1 2 54.8-17 103.1-52.5 133.6-19.8 17.1-45.5 29.9-72.7 36.2-24.9 5.8-17.2 5.6-166.7 5.9l-137.8.4v-231l48.6-171.3c26.7-94.2 48.8-171.6 49.1-172.1.7-1.1 152.1-.8 165.3.4z"/><path d="M951 635.5V682h48.3c52.3 0 56.6-.4 66.7-5.5 10.5-5.3 18.5-15.3 21.6-26.9 1.8-6.6 1.8-21.6 0-28.2-3.1-11.6-11.1-21.6-21.6-26.9-10.1-5.1-14.4-5.5-66.7-5.5H951v46.5zM951 859.4V910h51.8c56.3 0 58.6-.2 70-5.8 11.2-5.4 20.3-17.7 23.1-31 1.6-7.5 1.4-22.8-.4-29.5-4.1-15.7-13.8-26.2-29.6-31.9-6.4-2.3-6.8-2.3-60.6-2.6l-54.3-.3v50.5z"/></svg>