<svg xmlns="http://www.w3.org/2000/svg" width="313.088" height="49.518" viewBox="0 0 234.816 37.139" version="1.2">
  <path d="M212.865 24.748c1.455-.887 10.26-5.362 11.71-6.26.248-.02.434-.17.637-.294 3.197-1.947 6.396-3.892 9.594-5.837l.005.005.005 12.39c-.046.05-.084.114-.14.148-2.305 1.406-4.614 2.806-6.92 4.21-3.975 2.425-7.948 4.851-11.922 7.277-.307.174-.622.336-.918.527-.332.215-.66.328-1.028.094l-.18-.12-.01-.004-.121-.082-.125-.076c-.027-.08-.076-.13-.17-.116a.115.115 0 0 0-.104-.03l-.182-.12-.01-.004-.122-.083" fill="#fdd400"/>
  <path d="M21.381 36.786c-.779.496-1.347.466-1.998-.072-.124-.103-.274-.176-.41-.262-1.512-.935-3.016-1.882-4.537-2.803-4.01-2.43-8.033-4.837-12.034-7.28-.815-.499-1.675-.939-2.393-1.588 3.198-1.945 6.397-3.89 9.594-5.837.203-.124.39-.274.638-.293 1.48.893 9.661 5.235 11.14 6.13" fill="#e6ba1e"/>
  <path d="M21.951 12.391c-1.455.886-10.26 5.361-11.71 6.26-.248.02-.434.17-.637.293-3.197 1.947-6.396 3.892-9.594 5.837l-.005-.006c0-4.13-.003-8.258-.005-12.387.046-.05.084-.116.14-.15 2.305-1.405 4.614-2.806 6.92-4.21 3.976-2.424 7.95-4.85 11.923-7.276.307-.175.621-.337.918-.528.332-.215.66-.328 1.028-.094l.18.121.01.002c.04.03.08.055.12.083l.126.075c.027.08.075.132.17.118.03.027.063.038.103.03l.183.12.01.003.122.083" fill="#fdd400"/>
  <path d="M29.47 29.416V8.886h5.588v7.983h7.465V8.885h5.612v20.53h-5.613V21.06h-7.465v8.357zm28.45-7.67h5.575L61.4 14.978c-.099-.33-.187-.664-.265-1-.115-.457-.259-1.047-.434-1.77-.114.483-.234.965-.36 1.445-.11.444-.226.886-.35 1.325zm-7.84 7.67l7.082-20.53h7.02l7.092 20.53h-5.563l-1.035-3.673h-7.96l-1.06 3.673zm36.808-19.313v5.84c-.73-.81-1.457-1.404-2.184-1.782a4.954 4.954 0 0 0-2.333-.574c-1.541 0-2.789.526-3.737 1.575-.95 1.05-1.425 2.42-1.425 4.104 0 1.571.483 2.873 1.45 3.908.97 1.035 2.208 1.552 3.712 1.552a5.01 5.01 0 0 0 2.333-.563c.727-.383 1.454-.983 2.184-1.805v5.851a12.1 12.1 0 0 1-2.53.92c-.83.205-1.683.31-2.539.31-1.074 0-2.064-.127-2.966-.38a8.284 8.284 0 0 1-2.493-1.16c-1.468-.98-2.585-2.214-3.359-3.7-.766-1.497-1.149-3.175-1.149-5.037 0-1.5.242-2.864.724-4.092.49-1.224 1.23-2.339 2.219-3.345a9.244 9.244 0 0 1 3.138-2.138c1.164-.474 2.46-.713 3.885-.713.856 0 1.704.103 2.54.311.843.205 1.685.514 2.53.92zm3.878 19.313V8.886h5.539v9.331l6.49-9.332h6.515l-7.586 10.018 8.248 10.513h-6.985l-6.683-9.212v9.212zm20.82 0V8.886h12.57v4.502h-7.116v3.565h6.72v4.395h-6.721v3.468h7.117v4.6zm16.282 0V8.886h5.84c2.294 0 3.892.107 4.793.324.897.211 1.676.56 2.335 1.048a5.524 5.524 0 0 1 1.699 2.155c.4.867.601 1.825.601 2.866 0 1.59-.393 2.884-1.18 3.878-.78.995-1.914 1.658-3.407 1.986l5.6 8.273h-6.322l-4.721-8.032v8.032zm5.238-10.826h1.035c1.21 0 2.096-.204 2.649-.614.554-.415.83-1.063.83-1.938 0-1.027-.261-1.759-.782-2.192-.515-.434-1.384-.65-2.613-.65h-1.12zm13.775-.9c0-.793.268-1.46.806-1.998.537-.535 1.205-.807 2-.807.81 0 1.484.272 2.023.807.544.54.82 1.205.82 2 0 .803-.279 1.477-.833 2.022-.547.547-1.216.82-2.01.82-.789 0-1.455-.27-2-.82-.538-.554-.806-1.228-.806-2.023zm0 8.9c0-.795.268-1.46.806-2 .537-.544 1.205-.82 2-.82.81 0 1.484.276 2.023.82.544.54.82 1.205.82 2 0 .794-.279 1.47-.833 2.023-.547.545-1.216.82-2.01.82-.789 0-1.455-.275-2-.82-.538-.555-.806-1.228-.806-2.023z" fill="#5e6161"/>
  <path d="M161.315 17.086h1.12c1.379 0 2.327-.148 2.842-.446.511-.305.77-.834.77-1.59 0-.77-.24-1.313-.722-1.625-.482-.313-1.419-.47-2.806-.47h-1.204zm-5.19 12.33V8.886h5.624c2.312 0 3.928.076 4.852.227.921.145 1.716.404 2.384.771.753.42 1.328.982 1.723 1.686.4.708.6 1.523.6 2.445 0 1.174-.297 2.104-.89 2.794-.596.682-1.54 1.2-2.842 1.552 1.46.115 2.601.627 3.42 1.542.825.91 1.24 2.125 1.24 3.65 0 1.092-.234 2.055-.698 2.89a4.817 4.817 0 0 1-1.986 1.937c-.7.37-1.563.635-2.59.795-1.03.161-2.709.24-5.045.24zm5.19-4.19h1.963c1.324 0 2.258-.163 2.805-.494.555-.338.831-.894.831-1.674 0-.858-.252-1.457-.759-1.794-.5-.343-1.43-.518-2.793-.518h-2.047zm14.413 4.19V8.886h5.659v20.53zm30.235-10.263a10.092 10.092 0 0 1-.782 3.963 10.02 10.02 0 0 1-2.25 3.295 10.707 10.707 0 0 1-3.434 2.23 10.533 10.533 0 0 1-3.998.78 10.578 10.578 0 0 1-4.02-.78 10.161 10.161 0 0 1-3.376-2.23 10.072 10.072 0 0 1-2.297-3.307 10.055 10.055 0 0 1-.782-3.95c0-1.402.26-2.716.782-3.95a10.125 10.125 0 0 1 2.297-3.309 10.205 10.205 0 0 1 3.376-2.227 10.573 10.573 0 0 1 4.021-.782c1.393 0 2.733.261 4.02.781a10.352 10.352 0 0 1 3.41 2.228 10.028 10.028 0 0 1 2.25 3.296c.524 1.255.79 2.602.782 3.962zm-10.464 5.755c1.485 0 2.711-.543 3.675-1.632.965-1.085 1.448-2.46 1.448-4.123 0-1.636-.491-3.003-1.47-4.1-.983-1.103-2.2-1.654-3.654-1.654-1.478 0-2.704.548-3.675 1.643-.963 1.097-1.446 2.466-1.446 4.111 0 1.678.477 3.056 1.436 4.135.956 1.08 2.184 1.62 3.686 1.62zM213.433.353c.779-.496 1.347-.467 1.999.071.124.102.273.176.41.262 1.51.935 3.016 1.882 4.536 2.803 4.01 2.43 8.033 4.837 12.034 7.281.815.498 1.675.938 2.393 1.587-3.198 1.945-6.397 3.89-9.594 5.837-.203.124-.39.273-.637.293-1.482-.892-9.662-5.234-11.141-6.13" fill="#e6ba1e"/>
</svg>